<svg xmlns="http://www.w3.org/2000/svg" width="1145" height="405" viewBox="0 0 1145 405">
<rect x="0" y="0" width="1145" height="405" fill="white"/>
<text x="572.5" y="34" text-anchor="middle" font-size="20" font-family="Arial">Suidui absolute difference heatmap (model vs project)</text>
<text x="362.50" y="69" text-anchor="middle" font-size="12" font-family="Arial">case1_sample</text>
<text x="527.50" y="69" text-anchor="middle" font-size="12" font-family="Arial">case2_shifted</text>
<text x="692.50" y="69" text-anchor="middle" font-size="12" font-family="Arial">case3_far</text>
<text x="857.50" y="69" text-anchor="middle" font-size="12" font-family="Arial">case4_cross</text>
<text x="1022.50" y="69" text-anchor="middle" font-size="12" font-family="Arial">case5_oblique</text>
<text x="270" y="105.00" text-anchor="end" font-size="12" font-family="Consolas">meeting_x</text>
<rect x="280" y="85" width="165" height="30" fill="rgb(40,200,220)" stroke="white"/>
<text x="362.50" y="105.00" text-anchor="middle" font-size="10" font-family="Consolas">0.000e+00</text>
<rect x="445" y="85" width="165" height="30" fill="rgb(49,196,212)" stroke="white"/>
<text x="527.50" y="105.00" text-anchor="middle" font-size="10" font-family="Consolas">3.638e-12</text>
<rect x="610" y="85" width="165" height="30" fill="rgb(40,200,220)" stroke="white"/>
<text x="692.50" y="105.00" text-anchor="middle" font-size="10" font-family="Consolas">0.000e+00</text>
<rect x="775" y="85" width="165" height="30" fill="rgb(40,200,220)" stroke="white"/>
<text x="857.50" y="105.00" text-anchor="middle" font-size="10" font-family="Consolas">0.000e+00</text>
<rect x="940" y="85" width="165" height="30" fill="rgb(40,200,220)" stroke="white"/>
<text x="1022.50" y="105.00" text-anchor="middle" font-size="10" font-family="Consolas">0.000e+00</text>
<text x="270" y="135.00" text-anchor="end" font-size="12" font-family="Consolas">meeting_y</text>
<rect x="280" y="115" width="165" height="30" fill="rgb(79,184,187)" stroke="white"/>
<text x="362.50" y="135.00" text-anchor="middle" font-size="10" font-family="Consolas">2.819e-10</text>
<rect x="445" y="115" width="165" height="30" fill="rgb(79,184,187)" stroke="white"/>
<text x="527.50" y="135.00" text-anchor="middle" font-size="10" font-family="Consolas">2.874e-10</text>
<rect x="610" y="115" width="165" height="30" fill="rgb(85,182,183)" stroke="white"/>
<text x="692.50" y="135.00" text-anchor="middle" font-size="10" font-family="Consolas">6.366e-10</text>
<rect x="775" y="115" width="165" height="30" fill="rgb(80,184,186)" stroke="white"/>
<text x="857.50" y="135.00" text-anchor="middle" font-size="10" font-family="Consolas">3.365e-10</text>
<rect x="940" y="115" width="165" height="30" fill="rgb(71,188,194)" stroke="white"/>
<text x="1022.50" y="135.00" text-anchor="middle" font-size="10" font-family="Consolas">8.731e-11</text>
<text x="270" y="165.00" text-anchor="end" font-size="12" font-family="Consolas">meet_time_s</text>
<rect x="280" y="145" width="165" height="30" fill="rgb(176,147,109)" stroke="white"/>
<text x="362.50" y="165.00" text-anchor="middle" font-size="10" font-family="Consolas">3.022e-04</text>
<rect x="445" y="145" width="165" height="30" fill="rgb(175,148,110)" stroke="white"/>
<text x="527.50" y="165.00" text-anchor="middle" font-size="10" font-family="Consolas">2.367e-04</text>
<rect x="610" y="145" width="165" height="30" fill="rgb(179,146,107)" stroke="white"/>
<text x="692.50" y="165.00" text-anchor="middle" font-size="10" font-family="Consolas">4.123e-04</text>
<rect x="775" y="145" width="165" height="30" fill="rgb(179,146,107)" stroke="white"/>
<text x="857.50" y="165.00" text-anchor="middle" font-size="10" font-family="Consolas">4.362e-04</text>
<rect x="940" y="145" width="165" height="30" fill="rgb(161,153,121)" stroke="white"/>
<text x="1022.50" y="165.00" text-anchor="middle" font-size="10" font-family="Consolas">3.470e-05</text>
<text x="270" y="195.00" text-anchor="end" font-size="12" font-family="Consolas">tanker_speed_mps</text>
<rect x="280" y="175" width="165" height="30" fill="rgb(179,146,107)" stroke="white"/>
<text x="362.50" y="195.00" text-anchor="middle" font-size="10" font-family="Consolas">4.278e-04</text>
<rect x="445" y="175" width="165" height="30" fill="rgb(175,148,110)" stroke="white"/>
<text x="527.50" y="195.00" text-anchor="middle" font-size="10" font-family="Consolas">2.540e-04</text>
<rect x="610" y="175" width="165" height="30" fill="rgb(179,146,106)" stroke="white"/>
<text x="692.50" y="195.00" text-anchor="middle" font-size="10" font-family="Consolas">4.637e-04</text>
<rect x="775" y="175" width="165" height="30" fill="rgb(176,147,109)" stroke="white"/>
<text x="857.50" y="195.00" text-anchor="middle" font-size="10" font-family="Consolas">2.821e-04</text>
<rect x="940" y="175" width="165" height="30" fill="rgb(180,146,106)" stroke="white"/>
<text x="1022.50" y="195.00" text-anchor="middle" font-size="10" font-family="Consolas">4.676e-04</text>
<text x="270" y="225.00" text-anchor="end" font-size="12" font-family="Consolas">receiver_speed_mps</text>
<rect x="280" y="205" width="165" height="30" fill="rgb(179,146,107)" stroke="white"/>
<text x="362.50" y="225.00" text-anchor="middle" font-size="10" font-family="Consolas">4.278e-04</text>
<rect x="445" y="205" width="165" height="30" fill="rgb(175,148,110)" stroke="white"/>
<text x="527.50" y="225.00" text-anchor="middle" font-size="10" font-family="Consolas">2.540e-04</text>
<rect x="610" y="205" width="165" height="30" fill="rgb(179,146,106)" stroke="white"/>
<text x="692.50" y="225.00" text-anchor="middle" font-size="10" font-family="Consolas">4.637e-04</text>
<rect x="775" y="205" width="165" height="30" fill="rgb(176,147,109)" stroke="white"/>
<text x="857.50" y="225.00" text-anchor="middle" font-size="10" font-family="Consolas">2.821e-04</text>
<rect x="940" y="205" width="165" height="30" fill="rgb(151,157,129)" stroke="white"/>
<text x="1022.50" y="225.00" text-anchor="middle" font-size="10" font-family="Consolas">7.771e-06</text>
<text x="270" y="255.00" text-anchor="end" font-size="12" font-family="Consolas">meet_altitude_m</text>
<rect x="280" y="235" width="165" height="30" fill="rgb(40,200,220)" stroke="white"/>
<text x="362.50" y="255.00" text-anchor="middle" font-size="10" font-family="Consolas">0.000e+00</text>
<rect x="445" y="235" width="165" height="30" fill="rgb(40,200,220)" stroke="white"/>
<text x="527.50" y="255.00" text-anchor="middle" font-size="10" font-family="Consolas">0.000e+00</text>
<rect x="610" y="235" width="165" height="30" fill="rgb(40,200,220)" stroke="white"/>
<text x="692.50" y="255.00" text-anchor="middle" font-size="10" font-family="Consolas">0.000e+00</text>
<rect x="775" y="235" width="165" height="30" fill="rgb(40,200,220)" stroke="white"/>
<text x="857.50" y="255.00" text-anchor="middle" font-size="10" font-family="Consolas">0.000e+00</text>
<rect x="940" y="235" width="165" height="30" fill="rgb(40,200,220)" stroke="white"/>
<text x="1022.50" y="255.00" text-anchor="middle" font-size="10" font-family="Consolas">0.000e+00</text>
<text x="270" y="285.00" text-anchor="end" font-size="12" font-family="Consolas">refuel_x</text>
<rect x="280" y="265" width="165" height="30" fill="rgb(40,200,220)" stroke="white"/>
<text x="362.50" y="285.00" text-anchor="middle" font-size="10" font-family="Consolas">0.000e+00</text>
<rect x="445" y="265" width="165" height="30" fill="rgb(49,196,212)" stroke="white"/>
<text x="527.50" y="285.00" text-anchor="middle" font-size="10" font-family="Consolas">3.638e-12</text>
<rect x="610" y="265" width="165" height="30" fill="rgb(40,200,220)" stroke="white"/>
<text x="692.50" y="285.00" text-anchor="middle" font-size="10" font-family="Consolas">0.000e+00</text>
<rect x="775" y="265" width="165" height="30" fill="rgb(40,200,220)" stroke="white"/>
<text x="857.50" y="285.00" text-anchor="middle" font-size="10" font-family="Consolas">0.000e+00</text>
<rect x="940" y="265" width="165" height="30" fill="rgb(40,200,220)" stroke="white"/>
<text x="1022.50" y="285.00" text-anchor="middle" font-size="10" font-family="Consolas">0.000e+00</text>
<text x="270" y="315.00" text-anchor="end" font-size="12" font-family="Consolas">refuel_y</text>
<rect x="280" y="295" width="165" height="30" fill="rgb(79,184,187)" stroke="white"/>
<text x="362.50" y="315.00" text-anchor="middle" font-size="10" font-family="Consolas">2.819e-10</text>
<rect x="445" y="295" width="165" height="30" fill="rgb(79,184,187)" stroke="white"/>
<text x="527.50" y="315.00" text-anchor="middle" font-size="10" font-family="Consolas">2.874e-10</text>
<rect x="610" y="295" width="165" height="30" fill="rgb(85,182,183)" stroke="white"/>
<text x="692.50" y="315.00" text-anchor="middle" font-size="10" font-family="Consolas">6.366e-10</text>
<rect x="775" y="295" width="165" height="30" fill="rgb(80,184,186)" stroke="white"/>
<text x="857.50" y="315.00" text-anchor="middle" font-size="10" font-family="Consolas">3.365e-10</text>
<rect x="940" y="295" width="165" height="30" fill="rgb(71,188,194)" stroke="white"/>
<text x="1022.50" y="315.00" text-anchor="middle" font-size="10" font-family="Consolas">8.731e-11</text>
<text x="270" y="345.00" text-anchor="end" font-size="12" font-family="Consolas">receiver_fuel_at_refuel_kg</text>
<rect x="280" y="325" width="165" height="30" fill="rgb(237,124,59)" stroke="white"/>
<text x="362.50" y="345.00" text-anchor="middle" font-size="10" font-family="Consolas">1.768e+00</text>
<rect x="445" y="325" width="165" height="30" fill="rgb(237,124,59)" stroke="white"/>
<text x="527.50" y="345.00" text-anchor="middle" font-size="10" font-family="Consolas">1.753e+00</text>
<rect x="610" y="325" width="165" height="30" fill="rgb(246,121,53)" stroke="white"/>
<text x="692.50" y="345.00" text-anchor="middle" font-size="10" font-family="Consolas">5.848e+00</text>
<rect x="775" y="325" width="165" height="30" fill="rgb(238,124,58)" stroke="white"/>
<text x="857.50" y="345.00" text-anchor="middle" font-size="10" font-family="Consolas">2.084e+00</text>
<rect x="940" y="325" width="165" height="30" fill="rgb(240,123,57)" stroke="white"/>
<text x="1022.50" y="345.00" text-anchor="middle" font-size="10" font-family="Consolas">2.582e+00</text>
<text x="72" y="371" font-size="11" font-family="Arial">color ~ log10(abs_diff)</text>
<rect x="72" y="379" width="2" height="12" fill="rgb(40,200,220)"/>
<rect x="74" y="379" width="2" height="12" fill="rgb(41,199,218)"/>
<rect x="76" y="379" width="2" height="12" fill="rgb(43,198,217)"/>
<rect x="78" y="379" width="2" height="12" fill="rgb(45,198,215)"/>
<rect x="80" y="379" width="2" height="12" fill="rgb(47,197,214)"/>
<rect x="82" y="379" width="2" height="12" fill="rgb(48,196,212)"/>
<rect x="84" y="379" width="2" height="12" fill="rgb(50,196,211)"/>
<rect x="86" y="379" width="2" height="12" fill="rgb(52,195,210)"/>
<rect x="88" y="379" width="2" height="12" fill="rgb(54,194,208)"/>
<rect x="90" y="379" width="2" height="12" fill="rgb(55,194,207)"/>
<rect x="92" y="379" width="2" height="12" fill="rgb(57,193,205)"/>
<rect x="94" y="379" width="2" height="12" fill="rgb(59,192,204)"/>
<rect x="96" y="379" width="2" height="12" fill="rgb(61,192,203)"/>
<rect x="98" y="379" width="2" height="12" fill="rgb(62,191,201)"/>
<rect x="100" y="379" width="2" height="12" fill="rgb(64,190,200)"/>
<rect x="102" y="379" width="2" height="12" fill="rgb(66,190,198)"/>
<rect x="104" y="379" width="2" height="12" fill="rgb(68,189,197)"/>
<rect x="106" y="379" width="2" height="12" fill="rgb(69,188,195)"/>
<rect x="108" y="379" width="2" height="12" fill="rgb(71,188,194)"/>
<rect x="110" y="379" width="2" height="12" fill="rgb(73,187,193)"/>
<rect x="112" y="379" width="2" height="12" fill="rgb(75,186,191)"/>
<rect x="114" y="379" width="2" height="12" fill="rgb(76,186,190)"/>
<rect x="116" y="379" width="2" height="12" fill="rgb(78,185,188)"/>
<rect x="118" y="379" width="2" height="12" fill="rgb(80,184,187)"/>
<rect x="120" y="379" width="2" height="12" fill="rgb(82,184,186)"/>
<rect x="122" y="379" width="2" height="12" fill="rgb(83,183,184)"/>
<rect x="124" y="379" width="2" height="12" fill="rgb(85,182,183)"/>
<rect x="126" y="379" width="2" height="12" fill="rgb(87,182,181)"/>
<rect x="128" y="379" width="2" height="12" fill="rgb(89,181,180)"/>
<rect x="130" y="379" width="2" height="12" fill="rgb(90,180,178)"/>
<rect x="132" y="379" width="2" height="12" fill="rgb(92,180,177)"/>
<rect x="134" y="379" width="2" height="12" fill="rgb(94,179,176)"/>
<rect x="136" y="379" width="2" height="12" fill="rgb(96,178,174)"/>
<rect x="138" y="379" width="2" height="12" fill="rgb(97,178,173)"/>
<rect x="140" y="379" width="2" height="12" fill="rgb(99,177,171)"/>
<rect x="142" y="379" width="2" height="12" fill="rgb(101,176,170)"/>
<rect x="144" y="379" width="2" height="12" fill="rgb(103,176,169)"/>
<rect x="146" y="379" width="2" height="12" fill="rgb(104,175,167)"/>
<rect x="148" y="379" width="2" height="12" fill="rgb(106,174,166)"/>
<rect x="150" y="379" width="2" height="12" fill="rgb(108,174,164)"/>
<rect x="152" y="379" width="2" height="12" fill="rgb(110,173,163)"/>
<rect x="154" y="379" width="2" height="12" fill="rgb(111,172,161)"/>
<rect x="156" y="379" width="2" height="12" fill="rgb(113,172,160)"/>
<rect x="158" y="379" width="2" height="12" fill="rgb(115,171,159)"/>
<rect x="160" y="379" width="2" height="12" fill="rgb(117,170,157)"/>
<rect x="162" y="379" width="2" height="12" fill="rgb(118,170,156)"/>
<rect x="164" y="379" width="2" height="12" fill="rgb(120,169,154)"/>
<rect x="166" y="379" width="2" height="12" fill="rgb(122,168,153)"/>
<rect x="168" y="379" width="2" height="12" fill="rgb(124,168,152)"/>
<rect x="170" y="379" width="2" height="12" fill="rgb(125,167,150)"/>
<rect x="172" y="379" width="2" height="12" fill="rgb(127,166,149)"/>
<rect x="174" y="379" width="2" height="12" fill="rgb(129,166,147)"/>
<rect x="176" y="379" width="2" height="12" fill="rgb(131,165,146)"/>
<rect x="178" y="379" width="2" height="12" fill="rgb(132,164,144)"/>
<rect x="180" y="379" width="2" height="12" fill="rgb(134,164,143)"/>
<rect x="182" y="379" width="2" height="12" fill="rgb(136,163,142)"/>
<rect x="184" y="379" width="2" height="12" fill="rgb(138,162,140)"/>
<rect x="186" y="379" width="2" height="12" fill="rgb(139,162,139)"/>
<rect x="188" y="379" width="2" height="12" fill="rgb(141,161,137)"/>
<rect x="190" y="379" width="2" height="12" fill="rgb(143,160,136)"/>
<rect x="192" y="379" width="2" height="12" fill="rgb(145,160,135)"/>
<rect x="194" y="379" width="2" height="12" fill="rgb(146,159,133)"/>
<rect x="196" y="379" width="2" height="12" fill="rgb(148,158,132)"/>
<rect x="198" y="379" width="2" height="12" fill="rgb(150,158,130)"/>
<rect x="200" y="379" width="2" height="12" fill="rgb(152,157,129)"/>
<rect x="202" y="379" width="2" height="12" fill="rgb(153,156,127)"/>
<rect x="204" y="379" width="2" height="12" fill="rgb(155,156,126)"/>
<rect x="206" y="379" width="2" height="12" fill="rgb(157,155,125)"/>
<rect x="208" y="379" width="2" height="12" fill="rgb(159,154,123)"/>
<rect x="210" y="379" width="2" height="12" fill="rgb(160,154,122)"/>
<rect x="212" y="379" width="2" height="12" fill="rgb(162,153,120)"/>
<rect x="214" y="379" width="2" height="12" fill="rgb(164,152,119)"/>
<rect x="216" y="379" width="2" height="12" fill="rgb(166,152,118)"/>
<rect x="218" y="379" width="2" height="12" fill="rgb(167,151,116)"/>
<rect x="220" y="379" width="2" height="12" fill="rgb(169,150,115)"/>
<rect x="222" y="379" width="2" height="12" fill="rgb(171,150,113)"/>
<rect x="224" y="379" width="2" height="12" fill="rgb(173,149,112)"/>
<rect x="226" y="379" width="2" height="12" fill="rgb(174,148,110)"/>
<rect x="228" y="379" width="2" height="12" fill="rgb(176,148,109)"/>
<rect x="230" y="379" width="2" height="12" fill="rgb(178,147,108)"/>
<rect x="232" y="379" width="2" height="12" fill="rgb(180,146,106)"/>
<rect x="234" y="379" width="2" height="12" fill="rgb(181,146,105)"/>
<rect x="236" y="379" width="2" height="12" fill="rgb(183,145,103)"/>
<rect x="238" y="379" width="2" height="12" fill="rgb(185,144,102)"/>
<rect x="240" y="379" width="2" height="12" fill="rgb(187,144,101)"/>
<rect x="242" y="379" width="2" height="12" fill="rgb(188,143,99)"/>
<rect x="244" y="379" width="2" height="12" fill="rgb(190,142,98)"/>
<rect x="246" y="379" width="2" height="12" fill="rgb(192,142,96)"/>
<rect x="248" y="379" width="2" height="12" fill="rgb(194,141,95)"/>
<rect x="250" y="379" width="2" height="12" fill="rgb(195,140,93)"/>
<rect x="252" y="379" width="2" height="12" fill="rgb(197,140,92)"/>
<rect x="254" y="379" width="2" height="12" fill="rgb(199,139,91)"/>
<rect x="256" y="379" width="2" height="12" fill="rgb(201,138,89)"/>
<rect x="258" y="379" width="2" height="12" fill="rgb(202,138,88)"/>
<rect x="260" y="379" width="2" height="12" fill="rgb(204,137,86)"/>
<rect x="262" y="379" width="2" height="12" fill="rgb(206,136,85)"/>
<rect x="264" y="379" width="2" height="12" fill="rgb(208,136,84)"/>
<rect x="266" y="379" width="2" height="12" fill="rgb(209,135,82)"/>
<rect x="268" y="379" width="2" height="12" fill="rgb(211,134,81)"/>
<rect x="270" y="379" width="2" height="12" fill="rgb(213,134,79)"/>
<rect x="272" y="379" width="2" height="12" fill="rgb(215,133,78)"/>
<rect x="274" y="379" width="2" height="12" fill="rgb(216,132,76)"/>
<rect x="276" y="379" width="2" height="12" fill="rgb(218,132,75)"/>
<rect x="278" y="379" width="2" height="12" fill="rgb(220,131,74)"/>
<rect x="280" y="379" width="2" height="12" fill="rgb(222,130,72)"/>
<rect x="282" y="379" width="2" height="12" fill="rgb(223,130,71)"/>
<rect x="284" y="379" width="2" height="12" fill="rgb(225,129,69)"/>
<rect x="286" y="379" width="2" height="12" fill="rgb(227,128,68)"/>
<rect x="288" y="379" width="2" height="12" fill="rgb(229,127,66)"/>
<rect x="290" y="379" width="2" height="12" fill="rgb(230,127,65)"/>
<rect x="292" y="379" width="2" height="12" fill="rgb(232,126,64)"/>
<rect x="294" y="379" width="2" height="12" fill="rgb(234,126,62)"/>
<rect x="296" y="379" width="2" height="12" fill="rgb(236,125,61)"/>
<rect x="298" y="379" width="2" height="12" fill="rgb(237,124,59)"/>
<rect x="300" y="379" width="2" height="12" fill="rgb(239,124,58)"/>
<rect x="302" y="379" width="2" height="12" fill="rgb(241,123,57)"/>
<rect x="304" y="379" width="2" height="12" fill="rgb(243,122,55)"/>
<rect x="306" y="379" width="2" height="12" fill="rgb(244,122,54)"/>
<rect x="308" y="379" width="2" height="12" fill="rgb(246,121,52)"/>
<rect x="310" y="379" width="2" height="12" fill="rgb(248,120,51)"/>
<rect x="312" y="379" width="2" height="12" fill="rgb(250,120,50)"/>
<text x="72" y="403" font-size="10" font-family="Consolas">1e-12</text>
<text x="312" y="403" text-anchor="end" font-size="10" font-family="Consolas">1e1</text>
</svg>
