<svg xmlns="http://www.w3.org/2000/svg" width="1100" height="460" viewBox="0 0 1100 460">
<rect x="0" y="0" width="1100" height="460" fill="white"/>
<text x="550.0" y="34" text-anchor="middle" font-size="20" font-family="Arial">Suidui A/B max_abs_diff by case (log scale)</text>
<line x1="90" y1="60" x2="90" y2="350" stroke="black"/>
<line x1="90" y1="350" x2="1060" y2="350" stroke="black"/>
<line x1="85" y1="350.00" x2="1060" y2="350.00" stroke="#e6e6e6"/>
<text x="80" y="354.00" text-anchor="end" font-size="11" font-family="Consolas">1e-12</text>
<line x1="85" y1="327.69" x2="1060" y2="327.69" stroke="#e6e6e6"/>
<text x="80" y="331.69" text-anchor="end" font-size="11" font-family="Consolas">1e-11</text>
<line x1="85" y1="305.38" x2="1060" y2="305.38" stroke="#e6e6e6"/>
<text x="80" y="309.38" text-anchor="end" font-size="11" font-family="Consolas">1e-10</text>
<line x1="85" y1="283.08" x2="1060" y2="283.08" stroke="#e6e6e6"/>
<text x="80" y="287.08" text-anchor="end" font-size="11" font-family="Consolas">1e-9</text>
<line x1="85" y1="260.77" x2="1060" y2="260.77" stroke="#e6e6e6"/>
<text x="80" y="264.77" text-anchor="end" font-size="11" font-family="Consolas">1e-8</text>
<line x1="85" y1="238.46" x2="1060" y2="238.46" stroke="#e6e6e6"/>
<text x="80" y="242.46" text-anchor="end" font-size="11" font-family="Consolas">1e-7</text>
<line x1="85" y1="216.15" x2="1060" y2="216.15" stroke="#e6e6e6"/>
<text x="80" y="220.15" text-anchor="end" font-size="11" font-family="Consolas">1e-6</text>
<line x1="85" y1="193.85" x2="1060" y2="193.85" stroke="#e6e6e6"/>
<text x="80" y="197.85" text-anchor="end" font-size="11" font-family="Consolas">1e-5</text>
<line x1="85" y1="171.54" x2="1060" y2="171.54" stroke="#e6e6e6"/>
<text x="80" y="175.54" text-anchor="end" font-size="11" font-family="Consolas">1e-4</text>
<line x1="85" y1="149.23" x2="1060" y2="149.23" stroke="#e6e6e6"/>
<text x="80" y="153.23" text-anchor="end" font-size="11" font-family="Consolas">1e-3</text>
<line x1="85" y1="126.92" x2="1060" y2="126.92" stroke="#e6e6e6"/>
<text x="80" y="130.92" text-anchor="end" font-size="11" font-family="Consolas">1e-2</text>
<line x1="85" y1="104.62" x2="1060" y2="104.62" stroke="#e6e6e6"/>
<text x="80" y="108.62" text-anchor="end" font-size="11" font-family="Consolas">1e-1</text>
<line x1="85" y1="82.31" x2="1060" y2="82.31" stroke="#e6e6e6"/>
<text x="80" y="86.31" text-anchor="end" font-size="11" font-family="Consolas">1e0</text>
<line x1="85" y1="60.00" x2="1060" y2="60.00" stroke="#e6e6e6"/>
<text x="80" y="64.00" text-anchor="end" font-size="11" font-family="Consolas">1e1</text>
<rect x="133.65" y="76.79" width="106.70" height="273.21" fill="#4e79a7"/>
<text x="187.00" y="372" text-anchor="middle" font-size="11" font-family="Arial" transform="rotate(25 187.00 372)">case1_sample</text>
<text x="187.00" y="70.79" text-anchor="middle" font-size="10" font-family="Consolas">1.768e+00</text>
<rect x="327.65" y="76.87" width="106.70" height="273.13" fill="#4e79a7"/>
<text x="381.00" y="372" text-anchor="middle" font-size="11" font-family="Arial" transform="rotate(25 381.00 372)">case2_shifted</text>
<text x="381.00" y="70.87" text-anchor="middle" font-size="10" font-family="Consolas">1.753e+00</text>
<rect x="521.65" y="65.20" width="106.70" height="284.80" fill="#4e79a7"/>
<text x="575.00" y="372" text-anchor="middle" font-size="11" font-family="Arial" transform="rotate(25 575.00 372)">case3_far</text>
<text x="575.00" y="59.20" text-anchor="middle" font-size="10" font-family="Consolas">5.848e+00</text>
<rect x="715.65" y="75.19" width="106.70" height="274.81" fill="#4e79a7"/>
<text x="769.00" y="372" text-anchor="middle" font-size="11" font-family="Arial" transform="rotate(25 769.00 372)">case4_cross</text>
<text x="769.00" y="69.19" text-anchor="middle" font-size="10" font-family="Consolas">2.084e+00</text>
<rect x="909.65" y="73.12" width="106.70" height="276.88" fill="#4e79a7"/>
<text x="963.00" y="372" text-anchor="middle" font-size="11" font-family="Arial" transform="rotate(25 963.00 372)">case5_oblique</text>
<text x="963.00" y="67.12" text-anchor="middle" font-size="10" font-family="Consolas">2.582e+00</text>
</svg>
