<svg xmlns="http://www.w3.org/2000/svg" width="980" height="660" viewBox="0 0 980 660">
<rect x="0" y="0" width="980" height="660" fill="white"/>
<text x="490" y="32" text-anchor="middle" font-size="20" font-family="Arial">Suidui trajectory: case1_sample</text>
<text x="490" y="54" text-anchor="middle" font-size="12" font-family="Consolas">max_abs_diff=1.768e+00</text>
<polyline points="101.11,435.72 105.06,434.50 109.01,433.28 112.96,432.06 116.91,430.84 120.86,429.61 124.80,428.39 128.75,427.17 132.70,425.95 136.65,424.72 140.60,423.50 143.76,422.71 147.07,422.22 150.47,422.06 154.89,422.06 159.30,422.06 163.72,422.06 168.13,422.06 172.55,422.06 176.96,422.06 181.38,422.06 185.79,422.06 190.21,422.06 194.62,422.06 199.04,422.06 203.45,422.06 207.87,422.06 211.49,422.06 215.90,422.06 220.32,422.06 216.37,423.29 212.43,424.51 208.48,425.74 204.54,426.97 200.60,428.20 196.65,429.43 192.71,430.65 188.76,431.88 184.82,433.11 180.87,434.34 176.93,435.57 172.98,436.79 169.04,438.02 165.09,439.25 161.15,440.48 157.21,441.70 153.26,442.93 157.21,441.70 161.15,440.48 165.09,439.25 169.04,438.02 172.98,436.79 176.93,435.57 180.87,434.34 184.82,433.11 188.76,431.88 192.71,430.65 196.65,429.43 200.60,428.20 204.54,426.97 208.48,425.74 212.43,424.51 216.37,423.29 220.32,422.06 224.26,420.83 228.21,419.60 232.15,418.38 236.10,417.15 240.04,415.92 243.98,414.69 247.93,413.46 251.87,412.24 255.82,411.01 259.76,409.78 263.71,408.55 267.65,407.33 271.60,406.10 275.54,404.87 279.49,403.64 283.43,402.41 287.37,401.19 291.32,399.96 295.26,398.73 299.21,397.50 303.15,396.28 307.10,395.05 311.04,393.82 314.99,392.59 318.93,391.36 322.88,390.14 326.82,388.91 330.76,387.68 334.71,386.45 338.65,385.23 342.60,384.00 346.54,382.77 350.49,381.54 354.43,380.31 358.38,379.09 362.32,377.86 366.26,376.63 370.21,375.40 374.15,374.18 378.10,372.95 382.04,371.72 385.99,370.49 389.93,369.26 393.88,368.04 397.82,366.81 401.77,365.58 405.71,364.35 409.65,363.13 413.60,361.90 417.54,360.67 421.49,359.44 425.43,358.21 429.38,356.99 433.32,355.76 437.27,354.53 441.21,353.30 445.15,352.08 449.10,350.85 453.04,349.62 456.99,348.39 460.93,347.16 464.88,345.94 468.82,344.71 472.77,343.48 476.71,342.25 480.66,341.02 484.60,339.80 488.54,338.57 492.49,337.34 496.43,336.11 500.38,334.89 504.32,333.66 508.27,332.43 512.21,331.20 516.16,329.97 520.10,328.75 524.04,327.52 527.99,326.29 531.93,325.06 535.88,323.84 539.82,322.61 543.77,321.38 547.71,320.15 551.66,318.92 555.60,317.70 559.55,316.47 563.49,315.24 567.43,314.01 571.38,312.79 575.32,311.56 579.27,310.33 583.21,309.10 587.16,307.87 591.10,306.65 595.05,305.42 598.99,304.19 602.93,302.96 606.88,301.74 610.82,300.51 614.77,299.28 618.71,298.05 622.66,296.82 626.60,295.60 630.55,294.37 634.49,293.14 638.44,291.91 642.38,290.69 646.32,289.46 650.27,288.23 654.21,287.00 658.16,285.77 662.10,284.55 666.05,283.32 669.99,282.09 673.94,280.86 677.88,279.64 681.83,278.41 685.77,277.18 689.71,275.95 693.66,274.72 697.60,273.50 701.55,272.27 705.49,271.04 709.44,269.81 713.38,268.59 717.33,267.36 721.27,266.13 725.21,264.90 729.16,263.67 733.10,262.45 737.05,261.22 740.99,259.99 744.94,258.76 748.88,257.54 752.83,256.31 756.77,255.08 760.72,253.85 764.66,252.62 768.60,251.40 772.55,250.17 776.49,248.94 780.44,247.71 784.38,246.48 788.33,245.26 792.27,244.03 796.22,242.80 800.16,241.57 804.10,240.35 808.05,239.12 811.83,237.94 815.78,236.71 819.72,235.49 823.67,234.26 827.61,233.03 831.55,231.80 835.50,230.57 839.44,229.35 843.39,228.12 847.33,226.89 851.28,225.66 855.22,224.43 859.17,223.21 863.11,221.98 867.06,220.75 871.00,219.52 874.94,218.30 878.89,217.07" fill="none" stroke="#1f77b4" stroke-width="2.2"/>
<polyline points="321.86,381.06 319.65,381.57 317.13,382.14 314.32,382.78 311.24,383.47 307.90,384.21 304.31,385.01 300.50,385.85 296.47,386.74 292.25,387.67 287.85,388.64 283.28,389.64 278.57,390.68 273.72,391.75 268.76,392.84 263.70,393.96 258.55,395.09 253.33,396.24 248.06,397.41 242.75,398.59 237.42,399.77 232.09,400.96 226.76,402.16 221.46,403.35 216.21,404.53 211.00,405.71 205.88,406.88 200.84,408.03 195.91,409.17 191.09,410.28 186.42,411.37 181.89,412.44 177.54,413.48 173.37,414.48 169.40,415.45 165.64,416.38 162.12,417.27 158.84,418.11 155.83,418.91 153.09,419.65 150.65,420.34 148.52,420.98 146.72,421.55 145.26,422.06 142.74,423.25 142.37,424.11 143.88,424.68 147.01,425.00 151.48,425.10 157.02,425.01 163.38,424.78 170.29,424.44 177.47,424.03 184.67,423.58 191.61,423.13 198.03,422.72 203.66,422.38 208.24,422.14 211.49,422.06 220.04,422.06 220.32,422.06 216.37,423.29 212.43,424.51 208.48,425.74 204.54,426.97 200.60,428.20 196.65,429.43 192.71,430.65 188.76,431.88 184.82,433.11 180.87,434.34 176.93,435.57 172.98,436.79 169.04,438.02 165.09,439.25 161.15,440.48 157.21,441.70 153.26,442.93 157.21,441.70 161.15,440.48 165.09,439.25 169.04,438.02 172.98,436.79 176.93,435.57 180.87,434.34 184.82,433.11 188.76,431.88 192.71,430.65 196.65,429.43 200.60,428.20 204.54,426.97 208.48,425.74 212.43,424.51 216.37,423.29 220.32,422.06 224.26,420.83 228.21,419.60 232.15,418.38 236.10,417.15 240.04,415.92 243.98,414.69 247.93,413.46 251.87,412.24 255.82,411.01 259.76,409.78 263.71,408.55 267.65,407.33 271.60,406.10 275.54,404.87 279.49,403.64 283.43,402.41 287.37,401.19 291.32,399.96 295.26,398.73 299.21,397.50 303.15,396.28 307.10,395.05 311.04,393.82 314.99,392.59 318.93,391.36 322.88,390.14 326.82,388.91 330.76,387.68 334.71,386.45 338.65,385.23 342.60,384.00 346.54,382.77 350.49,381.54 354.43,380.31 358.38,379.09 362.32,377.86 366.26,376.63 370.21,375.40 374.15,374.18 378.10,372.95 382.04,371.72 385.99,370.49 389.93,369.26 393.88,368.04 397.82,366.81 401.77,365.58 405.71,364.35 409.65,363.13 413.60,361.90 417.54,360.67 421.49,359.44 425.43,358.21 429.38,356.99 433.32,355.76 437.27,354.53 441.21,353.30 445.15,352.08 449.10,350.85 453.04,349.62 456.99,348.39 460.93,347.16 464.88,345.94 468.82,344.71 472.77,343.48 476.71,342.25 480.66,341.02 484.60,339.80 488.54,338.57 492.49,337.34 496.43,336.11 500.38,334.89 504.32,333.66 508.27,332.43 512.21,331.20 516.16,329.97 520.10,328.75 524.04,327.52 527.99,326.29 531.93,325.06 535.88,323.84 539.82,322.61 543.77,321.38 547.71,320.15 551.66,318.92 555.60,317.70 559.55,316.47 563.49,315.24 567.43,314.01 571.38,312.79 575.32,311.56 579.27,310.33 583.21,309.10 587.16,307.87 591.10,306.65 595.05,305.42 598.99,304.19 602.93,302.96 606.88,301.74 610.82,300.51 614.77,299.28 618.71,298.05 622.66,296.82 626.60,295.60 630.55,294.37 634.49,293.14 638.44,291.91 642.38,290.69 646.32,289.46 650.27,288.23 654.21,287.00 658.16,285.77 662.10,284.55 666.05,283.32 669.99,282.09 673.94,280.86 677.88,279.64 681.83,278.41 685.77,277.18 689.71,275.95 693.66,274.72 697.60,273.50 701.55,272.27 705.49,271.04 709.44,269.81 713.38,268.59 717.33,267.36 721.27,266.13 725.21,264.90 729.16,263.67 733.10,262.45 737.05,261.22 740.99,259.99 744.94,258.76 748.88,257.54 752.83,256.31 756.77,255.08 760.72,253.85 764.66,252.62 768.60,251.40 772.55,250.17 776.49,248.94 780.44,247.71 784.38,246.48 788.33,245.26 792.27,244.03 796.22,242.80 800.16,241.57 804.10,240.35 808.05,239.12 811.83,237.94 815.78,236.71 819.72,235.49 823.67,234.26 827.61,233.03 831.55,231.80 835.50,230.57 839.44,229.35 843.39,228.12 847.33,226.89 851.28,225.66 855.22,224.43 859.17,223.21 863.11,221.98 867.06,220.75 871.00,219.52 874.94,218.30 878.89,217.07" fill="none" stroke="#2ca02c" stroke-width="2.2"/>
<circle cx="101.11" cy="435.72" r="4.6" fill="#1f77b4" stroke="white" stroke-width="1"/>
<circle cx="321.86" cy="381.06" r="4.6" fill="#2ca02c" stroke="white" stroke-width="1"/>
<circle cx="878.89" cy="217.07" r="4.8" fill="#111111" stroke="white" stroke-width="1"/>
<circle cx="220.32" cy="422.06" r="5.2" fill="#d62728" stroke="white" stroke-width="1"/>
<line x1="215.12" y1="416.86" x2="225.52" y2="427.26" stroke="#ff7f0e" stroke-width="2"/>
<line x1="215.12" y1="427.26" x2="225.52" y2="416.86" stroke="#ff7f0e" stroke-width="2"/>
<circle cx="220.32" cy="422.06" r="4.8" fill="#9467bd" stroke="white" stroke-width="1"/>
<line x1="215.52" y1="417.26" x2="225.12" y2="426.86" stroke="#8c564b" stroke-width="2"/>
<line x1="215.52" y1="426.86" x2="225.12" y2="417.26" stroke="#8c564b" stroke-width="2"/>
<line x1="70" y1="560" x2="92" y2="560" stroke="#1f77b4" stroke-width="2"/>
<text x="100" y="564" font-size="11" font-family="Arial">project tanker trajectory</text>
<line x1="70" y1="576" x2="92" y2="576" stroke="#2ca02c" stroke-width="2"/>
<text x="100" y="580" font-size="11" font-family="Arial">project receiver trajectory</text>
<circle cx="81.00" cy="592.00" r="4.0" fill="#d62728" stroke="white" stroke-width="1"/>
<text x="100" y="596" font-size="11" font-family="Arial">project meeting point</text>
<line x1="77.00" y1="604.00" x2="85.00" y2="612.00" stroke="#ff7f0e" stroke-width="2"/>
<line x1="77.00" y1="612.00" x2="85.00" y2="604.00" stroke="#ff7f0e" stroke-width="2"/>
<text x="100" y="612" font-size="11" font-family="Arial">model meeting point</text>
<circle cx="81.00" cy="624.00" r="4.0" fill="#9467bd" stroke="white" stroke-width="1"/>
<text x="100" y="628" font-size="11" font-family="Arial">project refuel point</text>
<line x1="77.00" y1="636.00" x2="85.00" y2="644.00" stroke="#8c564b" stroke-width="2"/>
<line x1="77.00" y1="644.00" x2="85.00" y2="636.00" stroke="#8c564b" stroke-width="2"/>
<text x="100" y="644" font-size="11" font-family="Arial">model refuel point</text>
<circle cx="81.00" cy="656.00" r="4.0" fill="#111111" stroke="white" stroke-width="1"/>
<text x="100" y="660" font-size="11" font-family="Arial">goal point</text>
</svg>
