<svg xmlns="http://www.w3.org/2000/svg" width="1320" height="450" viewBox="0 0 1320 450">
<rect x="0" y="0" width="1320" height="450" fill="white"/>
<text x="660.0" y="34" text-anchor="middle" font-size="20" font-family="Arial">Absolute difference heatmap (model vs project)</text>
<text x="345.00" y="65" text-anchor="middle" font-size="12" font-family="Arial">severe_sample</text>
<text x="515.00" y="65" text-anchor="middle" font-size="12" font-family="Arial">state0_direct</text>
<text x="685.00" y="65" text-anchor="middle" font-size="12" font-family="Arial">state0_headon</text>
<text x="855.00" y="65" text-anchor="middle" font-size="12" font-family="Arial">state2_direct</text>
<text x="1025.00" y="65" text-anchor="middle" font-size="12" font-family="Arial">state2_headon</text>
<text x="250" y="100.00" text-anchor="end" font-size="12" font-family="Consolas">meeting_x</text>
<rect x="260" y="80" width="170" height="30" fill="rgb(40,200,220)" stroke="white"/>
<text x="345.00" y="100.00" text-anchor="middle" font-size="10" font-family="Consolas" fill="black">0.000e+00</text>
<rect x="430" y="80" width="170" height="30" fill="rgb(40,200,220)" stroke="white"/>
<text x="515.00" y="100.00" text-anchor="middle" font-size="10" font-family="Consolas" fill="black">0.000e+00</text>
<rect x="600" y="80" width="170" height="30" fill="rgb(40,200,220)" stroke="white"/>
<text x="685.00" y="100.00" text-anchor="middle" font-size="10" font-family="Consolas" fill="black">0.000e+00</text>
<rect x="770" y="80" width="170" height="30" fill="rgb(154,156,127)" stroke="white"/>
<text x="855.00" y="100.00" text-anchor="middle" font-size="10" font-family="Consolas" fill="black">1.863e-09</text>
<rect x="940" y="80" width="170" height="30" fill="rgb(40,200,220)" stroke="white"/>
<text x="1025.00" y="100.00" text-anchor="middle" font-size="10" font-family="Consolas" fill="black">0.000e+00</text>
<text x="250" y="130.00" text-anchor="end" font-size="12" font-family="Consolas">meeting_y</text>
<rect x="260" y="110" width="170" height="30" fill="rgb(133,164,144)" stroke="white"/>
<text x="345.00" y="130.00" text-anchor="middle" font-size="10" font-family="Consolas" fill="black">4.657e-10</text>
<rect x="430" y="110" width="170" height="30" fill="rgb(150,158,130)" stroke="white"/>
<text x="515.00" y="130.00" text-anchor="middle" font-size="10" font-family="Consolas" fill="black">1.397e-09</text>
<rect x="600" y="110" width="170" height="30" fill="rgb(150,158,130)" stroke="white"/>
<text x="685.00" y="130.00" text-anchor="middle" font-size="10" font-family="Consolas" fill="black">1.397e-09</text>
<rect x="770" y="110" width="170" height="30" fill="rgb(150,158,130)" stroke="white"/>
<text x="855.00" y="130.00" text-anchor="middle" font-size="10" font-family="Consolas" fill="black">1.397e-09</text>
<rect x="940" y="110" width="170" height="30" fill="rgb(150,158,130)" stroke="white"/>
<text x="1025.00" y="130.00" text-anchor="middle" font-size="10" font-family="Consolas" fill="black">1.397e-09</text>
<text x="250" y="160.00" text-anchor="end" font-size="12" font-family="Consolas">meeting_time_s</text>
<rect x="260" y="140" width="170" height="30" fill="rgb(40,200,220)" stroke="white"/>
<text x="345.00" y="160.00" text-anchor="middle" font-size="10" font-family="Consolas" fill="black">0.000e+00</text>
<rect x="430" y="140" width="170" height="30" fill="rgb(40,200,220)" stroke="white"/>
<text x="515.00" y="160.00" text-anchor="middle" font-size="10" font-family="Consolas" fill="black">0.000e+00</text>
<rect x="600" y="140" width="170" height="30" fill="rgb(40,200,220)" stroke="white"/>
<text x="685.00" y="160.00" text-anchor="middle" font-size="10" font-family="Consolas" fill="black">0.000e+00</text>
<rect x="770" y="140" width="170" height="30" fill="rgb(40,200,220)" stroke="white"/>
<text x="855.00" y="160.00" text-anchor="middle" font-size="10" font-family="Consolas" fill="black">0.000e+00</text>
<rect x="940" y="140" width="170" height="30" fill="rgb(40,200,220)" stroke="white"/>
<text x="1025.00" y="160.00" text-anchor="middle" font-size="10" font-family="Consolas" fill="black">0.000e+00</text>
<text x="250" y="190.00" text-anchor="end" font-size="12" font-family="Consolas">tanker_speed_mps</text>
<rect x="260" y="170" width="170" height="30" fill="rgb(235,125,62)" stroke="white"/>
<text x="345.00" y="190.00" text-anchor="middle" font-size="10" font-family="Consolas" fill="black">3.730e-07</text>
<rect x="430" y="170" width="170" height="30" fill="rgb(40,200,220)" stroke="white"/>
<text x="515.00" y="190.00" text-anchor="middle" font-size="10" font-family="Consolas" fill="black">0.000e+00</text>
<rect x="600" y="170" width="170" height="30" fill="rgb(40,200,220)" stroke="white"/>
<text x="685.00" y="190.00" text-anchor="middle" font-size="10" font-family="Consolas" fill="black">0.000e+00</text>
<rect x="770" y="170" width="170" height="30" fill="rgb(40,200,220)" stroke="white"/>
<text x="855.00" y="190.00" text-anchor="middle" font-size="10" font-family="Consolas" fill="black">0.000e+00</text>
<rect x="940" y="170" width="170" height="30" fill="rgb(40,200,220)" stroke="white"/>
<text x="1025.00" y="190.00" text-anchor="middle" font-size="10" font-family="Consolas" fill="black">0.000e+00</text>
<text x="250" y="220.00" text-anchor="end" font-size="12" font-family="Consolas">receiver_speed_mps</text>
<rect x="260" y="200" width="170" height="30" fill="rgb(40,200,220)" stroke="white"/>
<text x="345.00" y="220.00" text-anchor="middle" font-size="10" font-family="Consolas" fill="black">0.000e+00</text>
<rect x="430" y="200" width="170" height="30" fill="rgb(40,200,220)" stroke="white"/>
<text x="515.00" y="220.00" text-anchor="middle" font-size="10" font-family="Consolas" fill="black">0.000e+00</text>
<rect x="600" y="200" width="170" height="30" fill="rgb(40,200,220)" stroke="white"/>
<text x="685.00" y="220.00" text-anchor="middle" font-size="10" font-family="Consolas" fill="black">0.000e+00</text>
<rect x="770" y="200" width="170" height="30" fill="rgb(40,200,220)" stroke="white"/>
<text x="855.00" y="220.00" text-anchor="middle" font-size="10" font-family="Consolas" fill="black">0.000e+00</text>
<rect x="940" y="200" width="170" height="30" fill="rgb(40,200,220)" stroke="white"/>
<text x="1025.00" y="220.00" text-anchor="middle" font-size="10" font-family="Consolas" fill="black">0.000e+00</text>
<text x="250" y="250.00" text-anchor="end" font-size="12" font-family="Consolas">tanker_fuel_kg</text>
<rect x="260" y="230" width="170" height="30" fill="rgb(232,126,64)" stroke="white"/>
<text x="345.00" y="250.00" text-anchor="middle" font-size="10" font-family="Consolas" fill="black">3.115e-07</text>
<rect x="430" y="230" width="170" height="30" fill="rgb(237,124,59)" stroke="white"/>
<text x="515.00" y="250.00" text-anchor="middle" font-size="10" font-family="Consolas" fill="black">4.444e-07</text>
<rect x="600" y="230" width="170" height="30" fill="rgb(216,132,77)" stroke="white"/>
<text x="685.00" y="250.00" text-anchor="middle" font-size="10" font-family="Consolas" fill="black">1.111e-07</text>
<rect x="770" y="230" width="170" height="30" fill="rgb(216,132,77)" stroke="white"/>
<text x="855.00" y="250.00" text-anchor="middle" font-size="10" font-family="Consolas" fill="black">1.111e-07</text>
<rect x="940" y="230" width="170" height="30" fill="rgb(235,125,61)" stroke="white"/>
<text x="1025.00" y="250.00" text-anchor="middle" font-size="10" font-family="Consolas" fill="black">3.889e-07</text>
<text x="250" y="280.00" text-anchor="end" font-size="12" font-family="Consolas">receiver_fuel_kg</text>
<rect x="260" y="260" width="170" height="30" fill="rgb(233,126,63)" stroke="white"/>
<text x="345.00" y="280.00" text-anchor="middle" font-size="10" font-family="Consolas" fill="black">3.333e-07</text>
<rect x="430" y="260" width="170" height="30" fill="rgb(237,124,59)" stroke="white"/>
<text x="515.00" y="280.00" text-anchor="middle" font-size="10" font-family="Consolas" fill="black">4.444e-07</text>
<rect x="600" y="260" width="170" height="30" fill="rgb(216,132,77)" stroke="white"/>
<text x="685.00" y="280.00" text-anchor="middle" font-size="10" font-family="Consolas" fill="black">1.111e-07</text>
<rect x="770" y="260" width="170" height="30" fill="rgb(233,126,63)" stroke="white"/>
<text x="855.00" y="280.00" text-anchor="middle" font-size="10" font-family="Consolas" fill="black">3.333e-07</text>
<rect x="940" y="260" width="170" height="30" fill="rgb(235,125,61)" stroke="white"/>
<text x="1025.00" y="280.00" text-anchor="middle" font-size="10" font-family="Consolas" fill="black">3.889e-07</text>
<text x="250" y="310.00" text-anchor="end" font-size="12" font-family="Consolas">phase1_tanker_end_x</text>
<rect x="260" y="290" width="170" height="30" fill="rgb(40,200,220)" stroke="white"/>
<text x="345.00" y="310.00" text-anchor="middle" font-size="10" font-family="Consolas" fill="black">0.000e+00</text>
<rect x="430" y="290" width="170" height="30" fill="rgb(40,200,220)" stroke="white"/>
<text x="515.00" y="310.00" text-anchor="middle" font-size="10" font-family="Consolas" fill="black">0.000e+00</text>
<rect x="600" y="290" width="170" height="30" fill="rgb(40,200,220)" stroke="white"/>
<text x="685.00" y="310.00" text-anchor="middle" font-size="10" font-family="Consolas" fill="black">0.000e+00</text>
<rect x="770" y="290" width="170" height="30" fill="rgb(40,200,220)" stroke="white"/>
<text x="855.00" y="310.00" text-anchor="middle" font-size="10" font-family="Consolas" fill="black">0.000e+00</text>
<rect x="940" y="290" width="170" height="30" fill="rgb(40,200,220)" stroke="white"/>
<text x="1025.00" y="310.00" text-anchor="middle" font-size="10" font-family="Consolas" fill="black">0.000e+00</text>
<text x="250" y="340.00" text-anchor="end" font-size="12" font-family="Consolas">phase1_tanker_end_y</text>
<rect x="260" y="320" width="170" height="30" fill="rgb(150,158,130)" stroke="white"/>
<text x="345.00" y="340.00" text-anchor="middle" font-size="10" font-family="Consolas" fill="black">1.397e-09</text>
<rect x="430" y="320" width="170" height="30" fill="rgb(150,158,130)" stroke="white"/>
<text x="515.00" y="340.00" text-anchor="middle" font-size="10" font-family="Consolas" fill="black">1.397e-09</text>
<rect x="600" y="320" width="170" height="30" fill="rgb(150,158,130)" stroke="white"/>
<text x="685.00" y="340.00" text-anchor="middle" font-size="10" font-family="Consolas" fill="black">1.397e-09</text>
<rect x="770" y="320" width="170" height="30" fill="rgb(150,158,130)" stroke="white"/>
<text x="855.00" y="340.00" text-anchor="middle" font-size="10" font-family="Consolas" fill="black">1.397e-09</text>
<rect x="940" y="320" width="170" height="30" fill="rgb(150,158,130)" stroke="white"/>
<text x="1025.00" y="340.00" text-anchor="middle" font-size="10" font-family="Consolas" fill="black">1.397e-09</text>
<text x="250" y="370.00" text-anchor="end" font-size="12" font-family="Consolas">phase1_receiver_end_x</text>
<rect x="260" y="350" width="170" height="30" fill="rgb(40,200,220)" stroke="white"/>
<text x="345.00" y="370.00" text-anchor="middle" font-size="10" font-family="Consolas" fill="black">0.000e+00</text>
<rect x="430" y="350" width="170" height="30" fill="rgb(154,156,127)" stroke="white"/>
<text x="515.00" y="370.00" text-anchor="middle" font-size="10" font-family="Consolas" fill="black">1.863e-09</text>
<rect x="600" y="350" width="170" height="30" fill="rgb(40,200,220)" stroke="white"/>
<text x="685.00" y="370.00" text-anchor="middle" font-size="10" font-family="Consolas" fill="black">0.000e+00</text>
<rect x="770" y="350" width="170" height="30" fill="rgb(154,156,127)" stroke="white"/>
<text x="855.00" y="370.00" text-anchor="middle" font-size="10" font-family="Consolas" fill="black">1.863e-09</text>
<rect x="940" y="350" width="170" height="30" fill="rgb(40,200,220)" stroke="white"/>
<text x="1025.00" y="370.00" text-anchor="middle" font-size="10" font-family="Consolas" fill="black">0.000e+00</text>
<text x="250" y="400.00" text-anchor="end" font-size="12" font-family="Consolas">phase1_receiver_end_y</text>
<rect x="260" y="380" width="170" height="30" fill="rgb(133,164,144)" stroke="white"/>
<text x="345.00" y="400.00" text-anchor="middle" font-size="10" font-family="Consolas" fill="black">4.657e-10</text>
<rect x="430" y="380" width="170" height="30" fill="rgb(150,158,130)" stroke="white"/>
<text x="515.00" y="400.00" text-anchor="middle" font-size="10" font-family="Consolas" fill="black">1.397e-09</text>
<rect x="600" y="380" width="170" height="30" fill="rgb(150,158,130)" stroke="white"/>
<text x="685.00" y="400.00" text-anchor="middle" font-size="10" font-family="Consolas" fill="black">1.397e-09</text>
<rect x="770" y="380" width="170" height="30" fill="rgb(150,158,130)" stroke="white"/>
<text x="855.00" y="400.00" text-anchor="middle" font-size="10" font-family="Consolas" fill="black">1.397e-09</text>
<rect x="940" y="380" width="170" height="30" fill="rgb(150,158,130)" stroke="white"/>
<text x="1025.00" y="400.00" text-anchor="middle" font-size="10" font-family="Consolas" fill="black">1.397e-09</text>
<text x="70" y="414" font-size="11" font-family="Arial">color ~ log10(abs_diff)</text>
<rect x="70" y="422" width="2" height="12" fill="rgb(40,200,220)" stroke="none"/>
<rect x="72" y="422" width="2" height="12" fill="rgb(41,199,218)" stroke="none"/>
<rect x="74" y="422" width="2" height="12" fill="rgb(43,198,217)" stroke="none"/>
<rect x="76" y="422" width="2" height="12" fill="rgb(45,198,215)" stroke="none"/>
<rect x="78" y="422" width="2" height="12" fill="rgb(46,197,214)" stroke="none"/>
<rect x="80" y="422" width="2" height="12" fill="rgb(48,196,212)" stroke="none"/>
<rect x="82" y="422" width="2" height="12" fill="rgb(50,196,211)" stroke="none"/>
<rect x="84" y="422" width="2" height="12" fill="rgb(52,195,210)" stroke="none"/>
<rect x="86" y="422" width="2" height="12" fill="rgb(54,194,208)" stroke="none"/>
<rect x="88" y="422" width="2" height="12" fill="rgb(55,194,207)" stroke="none"/>
<rect x="90" y="422" width="2" height="12" fill="rgb(57,193,205)" stroke="none"/>
<rect x="92" y="422" width="2" height="12" fill="rgb(59,192,204)" stroke="none"/>
<rect x="94" y="422" width="2" height="12" fill="rgb(60,192,203)" stroke="none"/>
<rect x="96" y="422" width="2" height="12" fill="rgb(62,191,201)" stroke="none"/>
<rect x="98" y="422" width="2" height="12" fill="rgb(64,190,200)" stroke="none"/>
<rect x="100" y="422" width="2" height="12" fill="rgb(66,190,198)" stroke="none"/>
<rect x="102" y="422" width="2" height="12" fill="rgb(68,189,197)" stroke="none"/>
<rect x="104" y="422" width="2" height="12" fill="rgb(69,188,195)" stroke="none"/>
<rect x="106" y="422" width="2" height="12" fill="rgb(71,188,194)" stroke="none"/>
<rect x="108" y="422" width="2" height="12" fill="rgb(73,187,193)" stroke="none"/>
<rect x="110" y="422" width="2" height="12" fill="rgb(75,186,191)" stroke="none"/>
<rect x="112" y="422" width="2" height="12" fill="rgb(76,186,190)" stroke="none"/>
<rect x="114" y="422" width="2" height="12" fill="rgb(78,185,188)" stroke="none"/>
<rect x="116" y="422" width="2" height="12" fill="rgb(80,184,187)" stroke="none"/>
<rect x="118" y="422" width="2" height="12" fill="rgb(81,184,186)" stroke="none"/>
<rect x="120" y="422" width="2" height="12" fill="rgb(83,183,184)" stroke="none"/>
<rect x="122" y="422" width="2" height="12" fill="rgb(85,182,183)" stroke="none"/>
<rect x="124" y="422" width="2" height="12" fill="rgb(87,182,181)" stroke="none"/>
<rect x="126" y="422" width="2" height="12" fill="rgb(89,181,180)" stroke="none"/>
<rect x="128" y="422" width="2" height="12" fill="rgb(90,180,178)" stroke="none"/>
<rect x="130" y="422" width="2" height="12" fill="rgb(92,180,177)" stroke="none"/>
<rect x="132" y="422" width="2" height="12" fill="rgb(94,179,176)" stroke="none"/>
<rect x="134" y="422" width="2" height="12" fill="rgb(95,178,174)" stroke="none"/>
<rect x="136" y="422" width="2" height="12" fill="rgb(97,178,173)" stroke="none"/>
<rect x="138" y="422" width="2" height="12" fill="rgb(99,177,171)" stroke="none"/>
<rect x="140" y="422" width="2" height="12" fill="rgb(101,176,170)" stroke="none"/>
<rect x="142" y="422" width="2" height="12" fill="rgb(103,176,169)" stroke="none"/>
<rect x="144" y="422" width="2" height="12" fill="rgb(104,175,167)" stroke="none"/>
<rect x="146" y="422" width="2" height="12" fill="rgb(106,174,166)" stroke="none"/>
<rect x="148" y="422" width="2" height="12" fill="rgb(108,174,164)" stroke="none"/>
<rect x="150" y="422" width="2" height="12" fill="rgb(110,173,163)" stroke="none"/>
<rect x="152" y="422" width="2" height="12" fill="rgb(111,172,161)" stroke="none"/>
<rect x="154" y="422" width="2" height="12" fill="rgb(113,172,160)" stroke="none"/>
<rect x="156" y="422" width="2" height="12" fill="rgb(115,171,159)" stroke="none"/>
<rect x="158" y="422" width="2" height="12" fill="rgb(116,170,157)" stroke="none"/>
<rect x="160" y="422" width="2" height="12" fill="rgb(118,170,156)" stroke="none"/>
<rect x="162" y="422" width="2" height="12" fill="rgb(120,169,154)" stroke="none"/>
<rect x="164" y="422" width="2" height="12" fill="rgb(122,168,153)" stroke="none"/>
<rect x="166" y="422" width="2" height="12" fill="rgb(124,168,152)" stroke="none"/>
<rect x="168" y="422" width="2" height="12" fill="rgb(125,167,150)" stroke="none"/>
<rect x="170" y="422" width="2" height="12" fill="rgb(127,166,149)" stroke="none"/>
<rect x="172" y="422" width="2" height="12" fill="rgb(129,166,147)" stroke="none"/>
<rect x="174" y="422" width="2" height="12" fill="rgb(131,165,146)" stroke="none"/>
<rect x="176" y="422" width="2" height="12" fill="rgb(132,164,144)" stroke="none"/>
<rect x="178" y="422" width="2" height="12" fill="rgb(134,164,143)" stroke="none"/>
<rect x="180" y="422" width="2" height="12" fill="rgb(136,163,142)" stroke="none"/>
<rect x="182" y="422" width="2" height="12" fill="rgb(138,162,140)" stroke="none"/>
<rect x="184" y="422" width="2" height="12" fill="rgb(139,162,139)" stroke="none"/>
<rect x="186" y="422" width="2" height="12" fill="rgb(141,161,137)" stroke="none"/>
<rect x="188" y="422" width="2" height="12" fill="rgb(143,160,136)" stroke="none"/>
<rect x="190" y="422" width="2" height="12" fill="rgb(145,160,135)" stroke="none"/>
<rect x="192" y="422" width="2" height="12" fill="rgb(146,159,133)" stroke="none"/>
<rect x="194" y="422" width="2" height="12" fill="rgb(148,158,132)" stroke="none"/>
<rect x="196" y="422" width="2" height="12" fill="rgb(150,158,130)" stroke="none"/>
<rect x="198" y="422" width="2" height="12" fill="rgb(151,157,129)" stroke="none"/>
<rect x="200" y="422" width="2" height="12" fill="rgb(153,156,127)" stroke="none"/>
<rect x="202" y="422" width="2" height="12" fill="rgb(155,156,126)" stroke="none"/>
<rect x="204" y="422" width="2" height="12" fill="rgb(157,155,125)" stroke="none"/>
<rect x="206" y="422" width="2" height="12" fill="rgb(159,154,123)" stroke="none"/>
<rect x="208" y="422" width="2" height="12" fill="rgb(160,154,122)" stroke="none"/>
<rect x="210" y="422" width="2" height="12" fill="rgb(162,153,120)" stroke="none"/>
<rect x="212" y="422" width="2" height="12" fill="rgb(164,152,119)" stroke="none"/>
<rect x="214" y="422" width="2" height="12" fill="rgb(166,152,118)" stroke="none"/>
<rect x="216" y="422" width="2" height="12" fill="rgb(167,151,116)" stroke="none"/>
<rect x="218" y="422" width="2" height="12" fill="rgb(169,150,115)" stroke="none"/>
<rect x="220" y="422" width="2" height="12" fill="rgb(171,150,113)" stroke="none"/>
<rect x="222" y="422" width="2" height="12" fill="rgb(173,149,112)" stroke="none"/>
<rect x="224" y="422" width="2" height="12" fill="rgb(174,148,110)" stroke="none"/>
<rect x="226" y="422" width="2" height="12" fill="rgb(176,148,109)" stroke="none"/>
<rect x="228" y="422" width="2" height="12" fill="rgb(178,147,108)" stroke="none"/>
<rect x="230" y="422" width="2" height="12" fill="rgb(180,146,106)" stroke="none"/>
<rect x="232" y="422" width="2" height="12" fill="rgb(181,146,105)" stroke="none"/>
<rect x="234" y="422" width="2" height="12" fill="rgb(183,145,103)" stroke="none"/>
<rect x="236" y="422" width="2" height="12" fill="rgb(185,144,102)" stroke="none"/>
<rect x="238" y="422" width="2" height="12" fill="rgb(186,144,101)" stroke="none"/>
<rect x="240" y="422" width="2" height="12" fill="rgb(188,143,99)" stroke="none"/>
<rect x="242" y="422" width="2" height="12" fill="rgb(190,142,98)" stroke="none"/>
<rect x="244" y="422" width="2" height="12" fill="rgb(192,142,96)" stroke="none"/>
<rect x="246" y="422" width="2" height="12" fill="rgb(194,141,95)" stroke="none"/>
<rect x="248" y="422" width="2" height="12" fill="rgb(195,140,93)" stroke="none"/>
<rect x="250" y="422" width="2" height="12" fill="rgb(197,140,92)" stroke="none"/>
<rect x="252" y="422" width="2" height="12" fill="rgb(199,139,91)" stroke="none"/>
<rect x="254" y="422" width="2" height="12" fill="rgb(201,138,89)" stroke="none"/>
<rect x="256" y="422" width="2" height="12" fill="rgb(202,138,88)" stroke="none"/>
<rect x="258" y="422" width="2" height="12" fill="rgb(204,137,86)" stroke="none"/>
<rect x="260" y="422" width="2" height="12" fill="rgb(206,136,85)" stroke="none"/>
<rect x="262" y="422" width="2" height="12" fill="rgb(208,136,83)" stroke="none"/>
<rect x="264" y="422" width="2" height="12" fill="rgb(209,135,82)" stroke="none"/>
<rect x="266" y="422" width="2" height="12" fill="rgb(211,134,81)" stroke="none"/>
<rect x="268" y="422" width="2" height="12" fill="rgb(213,134,79)" stroke="none"/>
<rect x="270" y="422" width="2" height="12" fill="rgb(215,133,78)" stroke="none"/>
<rect x="272" y="422" width="2" height="12" fill="rgb(216,132,76)" stroke="none"/>
<rect x="274" y="422" width="2" height="12" fill="rgb(218,132,75)" stroke="none"/>
<rect x="276" y="422" width="2" height="12" fill="rgb(220,131,74)" stroke="none"/>
<rect x="278" y="422" width="2" height="12" fill="rgb(222,130,72)" stroke="none"/>
<rect x="280" y="422" width="2" height="12" fill="rgb(223,130,71)" stroke="none"/>
<rect x="282" y="422" width="2" height="12" fill="rgb(225,129,69)" stroke="none"/>
<rect x="284" y="422" width="2" height="12" fill="rgb(227,128,68)" stroke="none"/>
<rect x="286" y="422" width="2" height="12" fill="rgb(229,128,67)" stroke="none"/>
<rect x="288" y="422" width="2" height="12" fill="rgb(230,127,65)" stroke="none"/>
<rect x="290" y="422" width="2" height="12" fill="rgb(232,126,64)" stroke="none"/>
<rect x="292" y="422" width="2" height="12" fill="rgb(234,125,62)" stroke="none"/>
<rect x="294" y="422" width="2" height="12" fill="rgb(235,125,61)" stroke="none"/>
<rect x="296" y="422" width="2" height="12" fill="rgb(237,124,59)" stroke="none"/>
<rect x="298" y="422" width="2" height="12" fill="rgb(239,124,58)" stroke="none"/>
<rect x="300" y="422" width="2" height="12" fill="rgb(241,123,57)" stroke="none"/>
<rect x="302" y="422" width="2" height="12" fill="rgb(243,122,55)" stroke="none"/>
<rect x="304" y="422" width="2" height="12" fill="rgb(244,122,54)" stroke="none"/>
<rect x="306" y="422" width="2" height="12" fill="rgb(246,121,52)" stroke="none"/>
<rect x="308" y="422" width="2" height="12" fill="rgb(248,120,51)" stroke="none"/>
<rect x="310" y="422" width="2" height="12" fill="rgb(250,120,50)" stroke="none"/>
<text x="70" y="448" font-size="10" font-family="Consolas">1e-12</text>
<text x="310" y="448" text-anchor="end" font-size="10" font-family="Consolas">1e-6</text>
</svg>
