<svg xmlns="http://www.w3.org/2000/svg" width="980" height="660" viewBox="0 0 980 660">
<rect x="0" y="0" width="980" height="660" fill="white"/>
<text x="490.0" y="32" text-anchor="middle" font-size="20" font-family="Arial">Trajectory view: state0_headon</text>
<text x="490.0" y="54" text-anchor="middle" font-size="12" font-family="Consolas">max_abs_diff=1.111e-07</text>
<polyline points="101.11,330.00 104.22,330.00 107.33,330.00 110.44,330.00 113.56,330.00 116.67,330.00 119.78,330.00 122.89,330.00 126.00,330.00 129.11,330.00 132.22,330.00 135.33,330.00 138.44,330.00 141.56,330.00 144.67,330.00 147.78,330.00 150.89,330.00 154.00,330.00 157.11,330.00 160.22,330.00 163.33,330.00 166.44,330.00 169.56,330.00 172.67,330.00 175.78,330.00 178.89,330.00 182.00,330.00 185.11,330.00 188.22,330.00 191.33,330.00 194.44,330.00 197.56,330.00 200.67,330.00 203.78,330.00 206.89,330.00 210.00,330.00 213.11,330.00 216.22,330.00 219.33,330.00 222.44,330.00 225.56,330.00 228.67,330.00 231.78,330.00 234.89,330.00 238.00,330.00 241.11,330.00 244.22,330.00 247.33,330.00 250.44,330.00 253.56,330.00 256.67,330.00 259.78,330.00 262.89,330.00 266.00,330.00 269.11,330.00 272.22,330.00 275.33,330.00 278.44,330.00 281.56,330.00 284.67,330.00 287.78,330.00 290.89,330.00 294.00,330.00 297.11,330.00 300.22,330.00 303.33,330.00 306.44,330.00 309.56,330.00 312.67,330.00 315.78,330.00 318.89,330.00 322.00,330.00 325.11,330.00 328.22,330.00 331.33,330.00 334.44,330.00 337.56,330.00 340.67,330.00 343.78,330.00 346.89,330.00 350.00,330.00 353.11,330.00 356.22,330.00 359.33,330.00 362.44,330.00 365.56,330.00 368.67,330.00 371.78,330.00 374.89,330.00 378.00,330.00 381.11,330.00 384.22,330.00 387.33,330.00 390.44,330.00 393.56,330.00 396.67,330.00 399.78,330.00 402.89,330.00 406.00,330.00 409.11,330.00 412.22,330.00 415.33,330.00 418.44,330.00 421.56,330.00 424.67,330.00 427.78,330.00 430.89,330.00 434.00,330.00 437.11,330.00 440.22,330.00 443.33,330.00 446.44,330.00 449.56,330.00 452.67,330.00 455.78,330.00 458.89,330.00 462.00,330.00 465.11,330.00 468.22,330.00 471.33,330.00 474.44,330.00 477.56,330.00 480.67,330.00 483.78,330.00 486.89,330.00 490.00,330.00" fill="none" stroke="#1f77b4" stroke-width="2.2"/>
<polyline points="878.89,330.00 875.78,330.00 872.67,330.00 869.56,330.00 866.44,330.00 863.33,330.00 860.22,330.00 857.11,330.00 854.00,330.00 850.89,330.00 847.78,330.00 844.67,330.00 841.56,330.00 838.44,330.00 835.33,330.00 832.22,330.00 829.11,330.00 826.00,330.00 822.89,330.00 819.78,330.00 816.67,330.00 813.56,330.00 810.44,330.00 807.33,330.00 804.22,330.00 801.11,330.00 798.00,330.00 794.89,330.00 791.78,330.00 788.67,330.00 785.56,330.00 782.44,330.00 779.33,330.00 776.22,330.00 773.11,330.00 770.00,330.00 766.89,330.00 763.78,330.00 760.67,330.00 757.56,330.00 754.44,330.00 751.33,330.00 748.22,330.00 745.11,330.00 742.00,330.00 738.89,330.00 735.78,330.00 732.67,330.00 729.56,330.00 726.44,330.00 723.33,330.00 720.22,330.00 717.11,330.00 714.00,330.00 710.89,330.00 707.78,330.00 704.67,330.00 701.56,330.00 698.44,330.00 695.33,330.00 692.22,330.00 689.11,330.00 686.00,330.00 682.89,330.00 679.78,330.00 676.67,330.00 673.56,330.00 670.44,330.00 667.33,330.00 664.22,330.00 661.11,330.00 658.00,330.00 654.89,330.00 651.78,330.00 648.67,330.00 645.56,330.00 642.44,330.00 639.33,330.00 636.22,330.00 633.11,330.00 630.00,330.00 626.89,330.00 623.78,330.00 620.67,330.00 617.56,330.00 614.44,330.00 611.33,330.00 608.22,330.00 605.11,330.00 602.00,330.00 598.89,330.00 595.78,330.00 592.67,330.00 589.56,330.00 586.44,330.00 583.33,330.00 580.22,330.00 577.11,330.00 574.00,330.00 570.89,330.00 567.78,330.00 564.67,330.00 561.56,330.00 558.44,330.00 555.33,330.00 552.22,330.00 549.11,330.00 546.00,330.00 542.89,330.00 539.78,330.00 536.67,330.00 533.56,330.00 530.44,330.00 527.33,330.00 524.22,330.00 521.11,330.00 518.00,330.00 514.89,330.00 511.78,330.00 508.67,330.00 505.56,330.00 502.44,330.00 499.33,330.00 496.22,330.00 493.11,330.00 490.00,330.00 486.89,330.00 483.78,330.00 480.67,330.00 477.56,330.00 474.44,330.00 471.33,330.00 468.22,330.00 465.11,330.00 462.00,330.00 458.89,330.00 455.78,330.00 452.67,330.00 449.56,330.00 446.44,330.00 443.33,330.00 440.22,330.00 437.11,330.00 440.22,330.00 443.33,330.00 446.44,330.00 449.56,330.00 452.67,330.00 455.78,330.00 458.89,330.00 462.00,330.00 465.11,330.00 468.22,330.00 471.33,330.00 474.44,330.00 477.56,330.00 480.67,330.00 483.78,330.00 486.89,330.00 490.00,330.00" fill="none" stroke="#2ca02c" stroke-width="2.2"/>
<circle cx="101.11" cy="330.00" r="4.8" fill="#1f77b4" stroke="white" stroke-width="1"/>
<circle cx="878.89" cy="330.00" r="4.8" fill="#2ca02c" stroke="white" stroke-width="1"/>
<circle cx="490.00" cy="330.00" r="5.2" fill="#d62728" stroke="white" stroke-width="1"/>
<circle cx="178.89" cy="330.00" r="4.2" fill="#9467bd" stroke="white" stroke-width="1"/>
<circle cx="801.11" cy="330.00" r="4.2" fill="#17becf" stroke="white" stroke-width="1"/>
<line x1="484.80" y1="324.80" x2="495.20" y2="335.20" stroke="#ff7f0e" stroke-width="2"/>
<line x1="484.80" y1="335.20" x2="495.20" y2="324.80" stroke="#ff7f0e" stroke-width="2"/>
<line x1="174.59" y1="325.70" x2="183.19" y2="334.30" stroke="#8c564b" stroke-width="2"/>
<line x1="174.59" y1="334.30" x2="183.19" y2="325.70" stroke="#8c564b" stroke-width="2"/>
<line x1="796.81" y1="325.70" x2="805.41" y2="334.30" stroke="#e377c2" stroke-width="2"/>
<line x1="796.81" y1="334.30" x2="805.41" y2="325.70" stroke="#e377c2" stroke-width="2"/>
<line x1="70" y1="576" x2="92" y2="576" stroke="#1f77b4" stroke-width="2"/>
<text x="100" y="580" font-size="11" font-family="Arial">project tanker trajectory</text>
<line x1="70" y1="592" x2="92" y2="592" stroke="#2ca02c" stroke-width="2"/>
<text x="100" y="596" font-size="11" font-family="Arial">project receiver trajectory</text>
<circle cx="81" cy="608" r="4" fill="#d62728"/>
<text x="100" y="612" font-size="11" font-family="Arial">project meeting point</text>
<line x1="77.00" y1="620.00" x2="85.00" y2="628.00" stroke="#ff7f0e" stroke-width="2"/>
<line x1="77.00" y1="628.00" x2="85.00" y2="620.00" stroke="#ff7f0e" stroke-width="2"/>
<text x="100" y="628" font-size="11" font-family="Arial">model meeting point</text>
<circle cx="81" cy="640" r="4" fill="#9467bd"/>
<text x="100" y="644" font-size="11" font-family="Arial">project tanker phase midpoint</text>
<line x1="77.00" y1="652.00" x2="85.00" y2="660.00" stroke="#8c564b" stroke-width="2"/>
<line x1="77.00" y1="660.00" x2="85.00" y2="652.00" stroke="#8c564b" stroke-width="2"/>
<text x="100" y="660" font-size="11" font-family="Arial">model tanker phase midpoint</text>
</svg>
