<svg xmlns="http://www.w3.org/2000/svg" width="1100" height="460" viewBox="0 0 1100 460">
<rect x="0" y="0" width="1100" height="460" fill="white"/>
<text x="550.0" y="34" text-anchor="middle" font-size="20" font-family="Arial">A/B max_abs_diff by case (log scale)</text>
<line x1="90" y1="60" x2="90" y2="350" stroke="black"/>
<line x1="90" y1="350" x2="1060" y2="350" stroke="black"/>
<line x1="85" y1="350.00" x2="1060" y2="350.00" stroke="#e6e6e6"/>
<text x="80" y="354.00" text-anchor="end" font-size="11" font-family="Consolas">1e-12</text>
<line x1="85" y1="301.67" x2="1060" y2="301.67" stroke="#e6e6e6"/>
<text x="80" y="305.67" text-anchor="end" font-size="11" font-family="Consolas">1e-11</text>
<line x1="85" y1="253.33" x2="1060" y2="253.33" stroke="#e6e6e6"/>
<text x="80" y="257.33" text-anchor="end" font-size="11" font-family="Consolas">1e-10</text>
<line x1="85" y1="205.00" x2="1060" y2="205.00" stroke="#e6e6e6"/>
<text x="80" y="209.00" text-anchor="end" font-size="11" font-family="Consolas">1e-9</text>
<line x1="85" y1="156.67" x2="1060" y2="156.67" stroke="#e6e6e6"/>
<text x="80" y="160.67" text-anchor="end" font-size="11" font-family="Consolas">1e-8</text>
<line x1="85" y1="108.33" x2="1060" y2="108.33" stroke="#e6e6e6"/>
<text x="80" y="112.33" text-anchor="end" font-size="11" font-family="Consolas">1e-7</text>
<line x1="85" y1="60.00" x2="1060" y2="60.00" stroke="#e6e6e6"/>
<text x="80" y="64.00" text-anchor="end" font-size="11" font-family="Consolas">1e-6</text>
<rect x="133.65" y="80.70" width="106.70" height="269.30" fill="#4e79a7"/>
<text x="187.00" y="372" text-anchor="middle" font-size="11" font-family="Arial" transform="rotate(25 187.00 372)">severe_sample</text>
<text x="187.00" y="74.70" text-anchor="middle" font-size="10" font-family="Consolas">3.730e-07</text>
<rect x="327.65" y="77.02" width="106.70" height="272.98" fill="#4e79a7"/>
<text x="381.00" y="372" text-anchor="middle" font-size="11" font-family="Arial" transform="rotate(25 381.00 372)">state0_direct</text>
<text x="381.00" y="71.02" text-anchor="middle" font-size="10" font-family="Consolas">4.444e-07</text>
<rect x="521.65" y="106.12" width="106.70" height="243.88" fill="#4e79a7"/>
<text x="575.00" y="372" text-anchor="middle" font-size="11" font-family="Arial" transform="rotate(25 575.00 372)">state0_headon</text>
<text x="575.00" y="100.12" text-anchor="middle" font-size="10" font-family="Consolas">1.111e-07</text>
<rect x="715.65" y="83.06" width="106.70" height="266.94" fill="#4e79a7"/>
<text x="769.00" y="372" text-anchor="middle" font-size="11" font-family="Arial" transform="rotate(25 769.00 372)">state2_direct</text>
<text x="769.00" y="77.06" text-anchor="middle" font-size="10" font-family="Consolas">3.333e-07</text>
<rect x="909.65" y="79.83" width="106.70" height="270.17" fill="#4e79a7"/>
<text x="963.00" y="372" text-anchor="middle" font-size="11" font-family="Arial" transform="rotate(25 963.00 372)">state2_headon</text>
<text x="963.00" y="73.83" text-anchor="middle" font-size="10" font-family="Consolas">3.889e-07</text>
</svg>
